<svg xmlns="http://www.w3.org/2000/svg" width="114" height="59" viewBox="0 0 114 59">
    <g fill="#FFF" fill-rule="evenodd">
        <path d="M14.278 13.504l-1.725 4.956-2.643.37 1.725-4.956-3.88.543-1.726 4.956-2.502.35-1.22 3.57 2.475-.347-1.06 3.136-2.503.35L0 30.002l2.474-.346L.776 34.58l3.88-.543 1.698-4.925 2.644-.37L7.3 33.669l3.88-.544 1.698-4.924 2.418-.338 1.22-3.57-2.39.334 1.06-3.136 2.417-.338 1.22-3.57-2.39.335 1.725-4.956-3.88.543zm-5.616 8.9l2.643-.37-1.06 3.135-2.643.37 1.06-3.136zM28.949 16.413l-2.764 6.471 3.711-.52-.947-5.951zm-4.593 10.565l-2.043 4.589-4.837.677 9.678-20.541 5.062-.708 3.93 18.636-4.836.677-.768-4.196-6.186.866zM52.49 12.242L48.369 14.6c-.271-.811-.885-1.767-2.375-1.559-1.012.142-1.758.877-1.74 1.696.05 2.269 6.945 1.605 7.052 6.524.08 3.662-2.64 6.975-7.477 7.652-4.414.617-6.113-2.27-6.397-3.682l4.316-2.55c.362 1.073 1.283 1.958 2.633 1.77 1.237-.174 1.983-.881 1.964-1.783-.049-2.214-6.888-1.586-7-6.696-.077-3.552 2.76-6.718 7.146-7.331 4.217-.59 5.716 2.188 6 3.6M52.93 27.283l2.873-19.589 4.809-.672-2.234 15.306 5.905-.827-.64 4.283zM70.614 24.809l-4.808.673 2.874-19.59 4.808-.672zM81.19 8.737c1.02-.143 1.842-.97 1.82-1.977-.016-.725-.528-1.114-1.396-.992l-1.491.209-.44 2.97 1.508-.21zm-.66 4.71c1.202-.169 2.163-.957 2.135-2.215-.02-.903-.715-1.25-1.643-1.12l-1.538.215-.492 3.334 1.538-.215zm-1.885-8.703l3.136-.44c1.858-.26 2.959.522 2.989 1.898.025 1.17-.685 2.22-1.71 2.867.846.253 1.35.91 1.37 1.828.043 2.013-1.738 3.672-3.839 3.966l-3.502.49 1.556-10.61zM87.14 3.555l1.69-.237-1.555 10.61-1.69.236zM91.068 3.005l1.69-.236-.718 4.895 4.54-5.43 2.009-.281-4.87 5.699 3.543 4.878-1.964.275-3.324-4.671-.771 5.244-1.69.237zM100.05 1.749l1.69-.237-1.555 10.61-1.69.236zM103.963 1.201l1.705-.239 4.052 7.242 1.17-7.972L112.55 0l-1.555 10.609-1.675.235-4.066-7.196-1.171 7.928-1.675.234zM9.893 41.933L7.5 58.13l-5.085.712 2.391-16.199-4.491.629.677-4.533 14.07-1.968-.678 4.532zM14.401 57.166l3.04-20.727 11.094-1.552-.647 4.528-6.009.84-.52 3.467 5.115-.716-.648 4.5-5.116.715-.546 3.701 6.246-.874-.677 4.532zM35.636 41.753l-1.872 12.704-4.997.699 3.04-20.727 5.175-.724L42.73 45.49l1.868-12.85 4.997-.698-3.04 20.726-5.057.708zM60.654 35.643L57.73 42.49l3.926-.55-1.002-6.297zm-4.859 11.179l-2.161 4.855-5.117.716 10.238-21.734 5.354-.749 4.159 19.72-5.116.715-.813-4.44-6.544.917zM77.1 35.952l-1.872 12.704-4.997.699 3.04-20.727 5.175-.724 5.746 11.783 1.869-12.848 4.996-.7-3.039 20.727-5.057.708zM111.336 40.79c-2.433 1.994-5.196 3.918-9.984 4.588-5.235.732-9.206-2.134-9.325-7.6-.144-6.62 5.388-12.905 12.616-13.916 4.907-.687 7.068 1.244 7.929 2.429l-3.707 3.767c-.34-.533-1.892-1.94-4.688-1.549-4.224.591-6.893 4.04-6.812 7.798.068 3.123 2.132 4.748 5.018 4.344 2.617-.366 4.262-1.524 4.642-1.897l.259-1.834-3.6.504.624-4.235 8.329-1.165-1.301 8.767zM74.948 22.547l.302-2.096 38.593-5.702-.303 2.096z"/>
    </g>
</svg>
