<svg xmlns="http://www.w3.org/2000/svg" width="100" height="19" viewBox="0 0 100 19">
    <g fill="none" fill-rule="evenodd">
        <path fill="#ED1C24" d="M0 19L2.346 6h4.38c1.76 0 3.098.3 4.01.902.912.602 1.368 1.483 1.368 2.644 0 .806-.233 1.447-.699 1.924-.465.477-1.141.763-2.027.858.765.118 1.366.414 1.803.887.438.473.657 1.061.657 1.765 0 1.243-.492 2.223-1.474 2.942C9.382 18.64 8.033 19 6.317 19H0zm4.944-3.164h.322c.77 0 1.307-.082 1.611-.247.305-.165.457-.446.457-.841 0-.306-.106-.532-.318-.677-.211-.144-.545-.216-1.003-.216H5.3l-.356 1.981zm82.21 2.212L93.31 6h5.031L100 19h-4.527l-.086-1.728h-3.06L91.634 19H82.55l-1.938-5.692L79.577 19h-4.605l2.347-13h4.614l-.964 5.275L84.366 6h5.38l-4.805 6.562 2.213 5.486zm-81.298-7.23l.304-1.654h.6c.325 0 .58.068.762.205a.66.66 0 0 1 .275.56.71.71 0 0 1-.414.676c-.275.142-.709.213-1.3.213h-.227zM12.481 19l2.347-13h4.615l-.799 4.491h2.503L21.955 6h4.624l-2.364 13H19.6l.86-4.673h-2.512L17.088 19h-4.607zm14.205 0L29.04 6h4.676L31.37 19h-4.684zm7.114 0l2.347-13h4.666l1.46 4.129c.024.065.058.166.105.302.324.9.55 1.679.677 2.336L44.281 6h4.614L46.54 19h-4.658l-2.355-6.713c-.024.61-.154 1.598-.392 2.966l-.016.107-.652 3.64H33.8zm15.078 0l2.347-13h4.666l1.46 4.129c.024.065.059.166.105.302.324.9.55 1.679.677 2.336L59.36 6h4.614l-2.355 13h-4.657l-2.356-6.713c-.023.61-.153 1.598-.391 2.966l-.017.107-.652 3.64h-4.667zm15.078 0l2.347-13h8.726l-.627 3.527h-4.145l-.235 1.255h3.903l-.591 3.29H69.44l-.252 1.4h4.52L73.073 19h-9.117zm29.632-4.8h1.624l-.051-1.395a30.073 30.073 0 0 1-.06-1.732c-.001-.237 0-.419.003-.546.003-.128.007-.248.013-.36-.104.35-.212.685-.321 1.008-.11.323-.215.612-.314.866l-.894 2.159z"/>
        <path fill="#FFCA04" d="M29.482 1.335L40 0 29 4z"/>
    </g>
</svg>
